# xmcd
#
# Track frame offsets:
#	150
#	17227
#	42640
#	66005
#	88250
#	111330
#	134200
#	160527
#
# Disc length: 2409 seconds
#
# Revision: 0
# Processed by: cddbd v1.5.2PL0 Copyright (c) Steve Scherf et al.
# Submitted via: EasyCDDAExtractor 10.0.3.1
#
DISCID=72096708
DTITLE=Pino Daniele - Scio - Live [CD1]
DYEAR=1984
DGENRE=Blues
TTITLE0=Chillo È Nu Buono Guaglione
TTITLE1=Have You Seen My Shoes
TTITLE2=Viento 'E Terra
TTITLE3=Io Vivo Come Te
TTITLE4=Tarumbò
TTITLE5=Tutta Nata Storia
TTITLE6=Chi Tene 'O Mare
TTITLE7=Mo Basta (Parte 1)
EXTD=YEAR: 1984 ID3G: 0\n
EXTT0=
EXTT1=
EXTT2=
EXTT3=
EXTT4=
EXTT5=
EXTT6=
EXTT7=
PLAYORDER=
